<svg width="18" height="18" viewBox="0 0 18 18" fill="none" xmlns="http://www.w3.org/2000/svg">
<g clip-path="url(#clip0_120_406)">
<mask id="mask0_120_406" style="mask-type:luminance" maskUnits="userSpaceOnUse" x="0" y="0" width="18" height="18">
<path d="M0.818359 0.818237H17.182V17.1819H0.818359V0.818237Z" fill="white"/>
</mask>
<g mask="url(#mask0_120_406)">
<path d="M5.55149 4.22772C5.55131 4.58938 5.40747 4.93615 5.15161 5.19176C4.89575 5.44736 4.54883 5.59086 4.18717 5.59068C3.82551 5.5905 3.47874 5.44665 3.22314 5.19079C2.96753 4.93493 2.82404 4.58802 2.82422 4.22636C2.8244 3.8647 2.96824 3.51792 3.2241 3.26232C3.47996 3.00672 3.82688 2.86322 4.18854 2.8634C4.5502 2.86358 4.89697 3.00743 5.15257 3.26329C5.40818 3.51914 5.55167 3.86606 5.55149 4.22772ZM5.5924 6.60045H2.86513V15.1368H5.5924V6.60045ZM9.90149 6.60045H7.18786V15.1368H9.87422V10.6573C9.87422 8.16181 13.1265 7.92999 13.1265 10.6573V15.1368H15.8197V9.72999C15.8197 5.52318 11.006 5.67999 9.87422 7.7459L9.90149 6.60045Z" fill="#FCA061"/>
</g>
</g>
<defs>
<clipPath id="clip0_120_406">
<rect width="16.3636" height="16.3636" fill="white" transform="translate(0.818359 0.818237)"/>
</clipPath>
</defs>
</svg>
