<svg width="18" height="10" viewBox="0 0 18 10" fill="none" xmlns="http://www.w3.org/2000/svg">
<path d="M7.22882 1.0267L5.58346 1.02833C4.5366 1.02898 3.53286 1.44542 2.793 2.18604C2.05314 2.92667 1.63775 3.93084 1.63818 4.9777C1.63883 6.02456 2.05527 7.0283 2.79589 7.76816C3.53652 8.50801 4.54069 8.92341 5.58755 8.92297L7.23373 8.92215M10.7634 1.02752L12.4095 1.02588C13.4564 1.02545 14.4606 1.44084 15.2012 2.1807C15.9418 2.92055 16.3583 3.92429 16.3589 4.97115C16.3592 5.48958 16.2574 6.00299 16.0593 6.48207C15.8613 6.96115 15.5707 7.39653 15.2044 7.76334C14.838 8.13015 14.403 8.4212 13.9242 8.61989C13.4453 8.81858 12.9321 8.92101 12.4136 8.92134H10.7683M5.58591 4.98097L12.0455 4.97688" stroke="#FCA061" stroke-width="1.63636" stroke-linecap="round"/>
</svg>
